<?xml version="1.0" encoding="UTF-8" standalone="no"?>
<!-- Generated by IcoMoon.io -->

<svg
   xmlns:dc="http://purl.org/dc/elements/1.1/"
   xmlns:cc="http://creativecommons.org/ns#"
   xmlns:rdf="http://www.w3.org/1999/02/22-rdf-syntax-ns#"
   xmlns:svg="http://www.w3.org/2000/svg"
   xmlns="http://www.w3.org/2000/svg"
   xmlns:sodipodi="http://sodipodi.sourceforge.net/DTD/sodipodi-0.dtd"
   xmlns:inkscape="http://www.inkscape.org/namespaces/inkscape"
   version="1.1"
   width="4921.4277"
   height="2407.188"
   viewBox="0 0 4921.4279 2407.188"
   id="svg4"
   sodipodi:docname="InformedOK.svg"
   inkscape:version="0.92.1 r15371">
  <metadata
     id="metadata10">
    <rdf:RDF>
      <cc:Work
         rdf:about="">
        <dc:format>image/svg+xml</dc:format>
        <dc:type
           rdf:resource="http://purl.org/dc/dcmitype/StillImage" />
        <dc:title />
      </cc:Work>
    </rdf:RDF>
  </metadata>
  <defs
     id="defs8" />
  <sodipodi:namedview
     pagecolor="#ffffff"
     bordercolor="#666666"
     borderopacity="1"
     objecttolerance="10"
     gridtolerance="10"
     guidetolerance="10"
     inkscape:pageopacity="0"
     inkscape:pageshadow="2"
     inkscape:window-width="2560"
     inkscape:window-height="1377"
     id="namedview6"
     showgrid="false"
     inkscape:zoom="0.184375"
     inkscape:cx="2027.9098"
     inkscape:cy="1156.439"
     inkscape:window-x="-8"
     inkscape:window-y="-8"
     inkscape:window-maximized="1"
     inkscape:current-layer="g4542" />
  <g
     transform="matrix(0.03,0,0,0.03,2488.8451,1194.6459)"
     id="Page-1"
     style="fill:#66000f;fill-opacity:0.94117647;fill-rule:evenodd;stroke:none;stroke-width:1" />
  <g
     id="g4542"
     transform="matrix(60,0,0,60,-236.83737,-865.71288)">
    <path
       style="fill:#ffffff;fill-opacity:1;stroke:#000000;stroke-width:0.20166667;stroke-miterlimit:4;stroke-dasharray:none;stroke-opacity:1;stroke-linejoin:round;stroke-linecap:round"
       id="path2"
       d="M 83.52,21.04 83.36,15.12 44,15.68 4.32,14.48 4,20.32 32.32,21.36 32,43.92 h 0.96 l 2.16,2.4 2.48,0.16 0.48,-1.12 1.68,1.76 0.08,1.04 4.48,1.2 1.28,-0.32 0.96,1.04 1.44,-0.8 h 2.4 l 0.16,1.44 1.28,0.24 0.32,1.52 h 0.8 l 2,-1.52 2,2.08 2.16,-0.96 0.72,2.16 0.64,-1.76 1.44,-1.04 1.68,1.2 1.52,-0.56 0.08,0.56 2.56,1.68 0.56,-0.64 3.2,-1.6 1.6,0.24 1.68,-1.2 1.04,1.04 h 1.36 l 1.36,-1.2 2.4,1.2 1.12,1.12 3.84,1.2 -0.32,-20.24 z"
       inkscape:connector-curvature="0" />
    <path
       style="fill:#66000f;fill-opacity:0.94117647;fill-rule:evenodd;stroke:none;stroke-width:0.03"
       inkscape:connector-curvature="0"
       id="odnoklassniki"
       d="m 78.988746,27.86359 c 0.905234,0 1.641352,0.736236 1.641352,1.641446 0,0.904285 -0.736118,1.640593 -1.641352,1.640593 -0.904285,0 -1.641327,-0.736308 -1.641327,-1.640593 0,-0.90521 0.737042,-1.641446 1.641327,-1.641446 z m 0,5.604361 c 2.186603,0 3.964125,-1.777546 3.964125,-3.962915 0,-2.186412 -1.777522,-3.964693 -3.964125,-3.964693 -2.186104,0 -3.9641,1.778281 -3.9641,3.964693 0,2.185369 1.777996,3.962915 3.9641,3.962915 z m 1.603828,3.233842 c 0.80699,-0.183917 1.58528,-0.503103 2.301924,-0.953502 0.5425,-0.341885 0.706019,-1.058909 0.364134,-1.601385 -0.341435,-0.543686 -1.058079,-0.707228 -1.601504,-0.365343 -1.623728,1.021219 -3.714411,1.020769 -5.337214,0 -0.543401,-0.341885 -1.260069,-0.178343 -1.601029,0.365343 -0.341885,0.542832 -0.178817,1.2595 0.363659,1.601385 0.716668,0.449829 1.494934,0.769585 2.301948,0.953502 l -2.216251,2.216132 c -0.453056,0.45353 -0.453056,1.188723 4.74e-4,1.642253 0.22699,0.226539 0.523951,0.340034 0.820889,0.340034 0.297412,0 0.594824,-0.113495 0.821838,-0.340034 l 2.176854,-2.177779 2.178704,2.177779 c 0.453079,0.453554 1.188272,0.453554 1.641802,0 0.454004,-0.45353 0.454004,-1.189079 0,-1.642253 z" />
    <text
       id="text4535"
       y="40.677967"
       x="3.7288141"
       style="font-style:normal;font-variant:normal;font-weight:normal;font-stretch:normal;font-size:18.66666603px;line-height:1.25;font-family:serif;-inkscape-font-specification:'serif, Normal';font-variant-ligatures:normal;font-variant-caps:normal;font-variant-numeric:normal;font-feature-settings:normal;text-align:start;letter-spacing:0px;word-spacing:0px;writing-mode:lr-tb;text-anchor:start;fill:#0000ce;fill-opacity:1;stroke:none"
       xml:space="preserve"><tspan
         style="font-style:normal;font-variant:normal;font-weight:normal;font-stretch:normal;font-size:18.66666603px;font-family:serif;-inkscape-font-specification:'serif, Normal';font-variant-ligatures:normal;font-variant-caps:normal;font-variant-numeric:normal;font-feature-settings:normal;text-align:start;writing-mode:lr-tb;text-anchor:start;fill:#0000ce;fill-opacity:1"
         y="40.677967"
         x="3.7288141"
         id="tspan4533"
         sodipodi:role="line">Informed</tspan></text>
  </g>
</svg>
